<?xml version="1.0" encoding="UTF-8" standalone="no"?>
<!DOCTYPE svg PUBLIC "-//W3C//DTD SVG 1.1//EN" "http://www.w3.org/Graphics/SVG/1.1/DTD/svg11.dtd">
<svg width="100%" height="100%" viewBox="0 0 500 500" version="1.1" xmlns="http://www.w3.org/2000/svg" xmlns:xlink="http://www.w3.org/1999/xlink" xml:space="preserve" xmlns:serif="http://www.serif.com/" style="fill-rule:evenodd;clip-rule:evenodd;stroke-linejoin:round;stroke-miterlimit:2;">
    <g transform="matrix(0.646376,0,0,0.646376,-55.3358,30.1364)">
        <rect x="179.048" y="540.952" width="586.667" height="59.429" style="fill:white;"/>
    </g>
    <g transform="matrix(9.44502e-18,0.154249,-0.652591,3.99597e-17,452.2,261.685)">
        <rect x="179.048" y="540.952" width="586.667" height="59.429" style="fill:white;"/>
    </g>
    <g transform="matrix(9.44502e-18,0.154249,-0.652591,3.99597e-17,792.625,261.685)">
        <rect x="179.048" y="540.952" width="586.667" height="59.429" style="fill:white;"/>
    </g>
    <g id="iconfinder_Cryptocurrency_blockchain_data-37_3287271" transform="matrix(8.41086,0,0,8.41086,250,216.365)">
        <g transform="matrix(1,0,0,1,-16,-16)">
            <g id="blockchain_data_1_">
                <g>
                    <g>
                        <g>
                            <g>
                                <path d="M26.5,30L18.5,30C18.224,30 18,29.776 18,29.5L18,21.5C18,21.224 18.224,21 18.5,21L26.5,21C26.776,21 27,21.224 27,21.5L27,29.5C27,29.776 26.776,30 26.5,30ZM19,29L26,29L26,22L19,22L19,29Z" style="fill:white;fill-rule:nonzero;"/>
                            </g>
                        </g>
                    </g>
                    <g>
                        <g>
                            <g>
                                <path d="M10.5,30L2.5,30C2.224,30 2,29.776 2,29.5L2,21.5C2,21.224 2.224,21 2.5,21L10.5,21C10.776,21 11,21.224 11,21.5L11,29.5C11,29.776 10.776,30 10.5,30ZM3,29L10,29L10,22L3,22L3,29Z" style="fill:white;fill-rule:nonzero;"/>
                            </g>
                        </g>
                    </g>
                    <g>
                        <g>
                            <g>
                                <path d="M26.5,14L18.5,14C18.224,14 18,13.776 18,13.5L18,5.5C18,5.367 18.053,5.24 18.146,5.146L21.146,2.146C21.24,2.053 21.367,2 21.5,2L29.5,2C29.776,2 30,2.224 30,2.5L30,10.5C30,10.633 29.947,10.76 29.854,10.854L26.854,13.854C26.76,13.947 26.633,14 26.5,14ZM19,13L26.293,13L29,10.293L29,3L21.707,3L19,5.707L19,13Z" style="fill:white;fill-rule:nonzero;"/>
                            </g>
                        </g>
                    </g>
                    <g>
                        <g>
                            <g>
                                <path d="M26.5,14L18.5,14C18.224,14 18,13.776 18,13.5L18,5.5C18,5.224 18.224,5 18.5,5L26.5,5C26.776,5 27,5.224 27,5.5L27,13.5C27,13.776 26.776,14 26.5,14ZM19,13L26,13L26,6L19,6L19,13Z" style="fill:white;fill-rule:nonzero;"/>
                            </g>
                        </g>
                    </g>
                    <g>
                        <g>
                            <g>
                                <path d="M10.5,14L2.5,14C2.224,14 2,13.776 2,13.5L2,5.5C2,5.224 2.224,5 2.5,5L10.5,5C10.776,5 11,5.224 11,5.5L11,13.5C11,13.776 10.776,14 10.5,14ZM3,13L10,13L10,6L3,6L3,13Z" style="fill:white;fill-rule:nonzero;"/>
                            </g>
                        </g>
                    </g>
                    <g>
                        <g>
                            <g>
                                <path d="M26.5,22C26.372,22 26.244,21.951 26.146,21.854C25.951,21.659 25.951,21.342 26.146,21.147L28.646,18.647C28.841,18.452 29.158,18.452 29.353,18.647C29.548,18.842 29.548,19.159 29.353,19.354L26.853,21.854C26.756,21.951 26.628,22 26.5,22Z" style="fill:white;fill-rule:nonzero;"/>
                            </g>
                        </g>
                    </g>
                    <g>
                        <g>
                            <g>
                                <path d="M10.5,22C10.372,22 10.244,21.951 10.146,21.854C9.951,21.659 9.951,21.342 10.146,21.147L12.646,18.647C12.841,18.452 13.158,18.452 13.353,18.647C13.548,18.842 13.548,19.159 13.353,19.354L10.853,21.854C10.756,21.951 10.628,22 10.5,22Z" style="fill:white;fill-rule:nonzero;"/>
                            </g>
                        </g>
                    </g>
                    <g>
                        <g>
                            <g>
                                <path d="M26.5,6C26.372,6 26.244,5.951 26.146,5.854C25.951,5.659 25.951,5.342 26.146,5.147L28.646,2.647C28.841,2.452 29.158,2.452 29.353,2.647C29.548,2.842 29.548,3.159 29.353,3.354L26.853,5.854C26.756,5.951 26.628,6 26.5,6Z" style="fill:white;fill-rule:nonzero;"/>
                            </g>
                        </g>
                    </g>
                    <g>
                        <g>
                            <g>
                                <path d="M10.5,6C10.372,6 10.244,5.951 10.146,5.854C9.951,5.659 9.951,5.342 10.146,5.147L12.646,2.647C12.841,2.452 13.158,2.452 13.353,2.647C13.548,2.842 13.548,3.159 13.353,3.354L10.853,5.854C10.756,5.951 10.628,6 10.5,6Z" style="fill:white;fill-rule:nonzero;"/>
                            </g>
                        </g>
                    </g>
                    <g>
                        <g>
                            <g>
                                <path d="M18,25L12.5,25C12.224,25 12,24.776 12,24.5C12,24.224 12.224,24 12.5,24L18,24C18.276,24 18.5,24.224 18.5,24.5C18.5,24.776 18.276,25 18,25Z" style="fill:white;fill-rule:nonzero;"/>
                            </g>
                        </g>
                    </g>
                    <g>
                        <g>
                            <g>
                                <path d="M18,9L12.5,9C12.224,9 12,8.776 12,8.5C12,8.224 12.224,8 12.5,8L18,8C18.276,8 18.5,8.224 18.5,8.5C18.5,8.776 18.276,9 18,9Z" style="fill:white;fill-rule:nonzero;"/>
                            </g>
                        </g>
                    </g>
                    <g>
                        <g>
                            <path d="M18.5,30C18.224,30 18,29.776 18,29.5L18,21.5C18,21.367 18.053,21.24 18.146,21.146L21.146,18.146C21.341,17.951 21.658,17.951 21.853,18.146C22.048,18.341 22.048,18.658 21.853,18.853L19,21.707L19,29L26.293,29L29,26.293L29,19L25.5,19C25.224,19 25,18.776 25,18.5C25,18.224 25.224,18 25.5,18L29.5,18C29.776,18 30,18.224 30,18.5L30,26.5C30,26.633 29.947,26.76 29.854,26.854L26.854,29.854C26.76,29.947 26.633,30 26.5,30L18.5,30Z" style="fill:white;fill-rule:nonzero;"/>
                        </g>
                    </g>
                    <g>
                        <g>
                            <g>
                                <path d="M23.5,20C23.224,20 23,19.776 23,19.5L23,14C23,13.724 23.224,13.5 23.5,13.5C23.776,13.5 24,13.724 24,14L24,19.5C24,19.776 23.776,20 23.5,20Z" style="fill:white;fill-rule:nonzero;"/>
                            </g>
                        </g>
                    </g>
                    <g>
                        <g>
                            <g>
                                <path d="M7.5,20C7.224,20 7,19.776 7,19.5L7,14C7,13.724 7.224,13.5 7.5,13.5C7.776,13.5 8,13.724 8,14L8,19.5C8,19.776 7.776,20 7.5,20Z" style="fill:white;fill-rule:nonzero;"/>
                            </g>
                        </g>
                    </g>
                    <g>
                        <g>
                            <path d="M2.5,14C2.224,14 2,13.776 2,13.5L2,5.5C2,5.367 2.053,5.24 2.146,5.146L5.146,2.146C5.24,2.053 5.367,2 5.5,2L13.5,2C13.776,2 14,2.224 14,2.5L14,6.5C14,6.776 13.776,7 13.5,7C13.224,7 13,6.776 13,6.5L13,3L5.707,3L3,5.707L3,13L10.293,13L13.147,10.146C13.342,9.951 13.659,9.951 13.854,10.146C14.049,10.341 14.049,10.658 13.854,10.853L10.854,13.853C10.76,13.947 10.633,14 10.5,14L2.5,14Z" style="fill:white;fill-rule:nonzero;"/>
                        </g>
                    </g>
                    <g>
                        <path d="M10.5,30L2.5,30C2.224,30 2,29.776 2,29.5L2,21.5C2,21.367 2.053,21.24 2.146,21.146L5.146,18.146C5.341,17.951 5.658,17.951 5.853,18.146C6.048,18.341 6.048,18.658 5.853,18.853L3,21.707L3,29L10.293,29L13.147,26.146C13.342,25.951 13.659,25.951 13.854,26.146C14.049,26.341 14.049,26.658 13.854,26.853L10.854,29.853C10.76,29.947 10.633,30 10.5,30Z" style="fill:white;fill-rule:nonzero;"/>
                    </g>
                    <g>
                        <g>
                            <path d="M13,22.5L13,19L9.5,19C9.224,19 9,18.776 9,18.5C9,18.224 9.224,18 9.5,18L13.5,18C13.776,18 14,18.224 14,18.5L14,22.5C14,22.776 13.776,23 13.5,23C13.224,23 13,22.776 13,22.5Z" style="fill:white;fill-rule:nonzero;"/>
                        </g>
                    </g>
                </g>
            </g>
        </g>
    </g>
</svg>
