<?xml version="1.0" encoding="UTF-8" standalone="no"?>
<!DOCTYPE svg PUBLIC "-//W3C//DTD SVG 1.1//EN" "http://www.w3.org/Graphics/SVG/1.1/DTD/svg11.dtd">
<svg width="100%" height="100%" viewBox="0 0 500 500" version="1.1" xmlns="http://www.w3.org/2000/svg" xmlns:xlink="http://www.w3.org/1999/xlink" xml:space="preserve" xmlns:serif="http://www.serif.com/" style="fill-rule:evenodd;clip-rule:evenodd;stroke-linejoin:round;stroke-miterlimit:2;">
    <g transform="matrix(0.904762,0,0,0.904762,23.8095,23.8095)">
        <path d="M500,50C500,22.404 477.596,0 450,0L50,0C22.404,0 0,22.404 0,50L0,450C0,477.596 22.404,500 50,500L450,500C477.596,500 500,477.596 500,450L500,50Z" style="fill:url(#_Linear1);"/>
    </g>
    <g transform="matrix(1,0,0,1,0,-19.7669)">
        <g transform="matrix(2.00915,0,0,0.970105,-116.097,20.1127)">
            <path d="M250,154.266L250,360.429L140.501,360.429L250,154.266Z" style="fill:white;"/>
        </g>
        <g transform="matrix(-2.00915,0,0,0.970105,616.097,20.1127)">
            <path d="M250,154.266L250,360.429L140.501,360.429L250,154.266Z" style="fill:white;"/>
        </g>
    </g>
    <defs>
        <linearGradient id="_Linear1" x1="0" y1="0" x2="1" y2="0" gradientUnits="userSpaceOnUse" gradientTransform="matrix(360.119,365.079,-365.079,360.119,63.9881,57.5397)"><stop offset="0" style="stop-color:rgb(127,127,213);stop-opacity:1"/><stop offset="0.48" style="stop-color:rgb(134,168,231);stop-opacity:1"/><stop offset="1" style="stop-color:rgb(145,234,228);stop-opacity:1"/></linearGradient>
    </defs>
</svg>
